<svg width="165" height="50" viewBox="0 0 165 50" fill="none" xmlns="http://www.w3.org/2000/svg">
<path d="M155.483 12.3425C153.068 12.3425 150.217 13.2277 148.239 16.1623V1.3833H141.23V40.1278H148.189V26.2958C148.189 21.9228 150.603 19.599 153.503 19.599C156.258 19.599 158.044 21.7014 158.044 25.5212V40.1321H165.001V25.4616C165.001 15.7196 161.089 12.3425 155.483 12.3425Z" fill="#266582"/>
<path d="M16.0394 16.3835C11.6911 15.9408 8.74507 15.2769 8.74507 11.7338C8.74507 9.07805 11.4496 7.47779 14.7838 7.47779C17.4418 7.47779 20.7278 8.47582 22.6112 10.7443L27.3497 5.97755C23.8706 1.32787 19.9569 0 14.7392 0C7.78103 0 1.40426 4.0964 1.36526 11.7891C1.26867 20.9225 7.64544 22.9696 14.7968 23.7442C19.3736 24.1975 21.6435 25.6871 21.5915 28.9472C21.5915 31.7136 18.8387 33.5415 14.8284 33.5415C11.3976 33.5415 7.09748 31.8817 4.48956 28.0619L0 33.4309C2.84939 38.8552 8.93825 41.4577 14.7838 41.4024C22.0781 41.347 29.0363 37.572 29.0363 28.9472C29.0363 19.9819 22.706 17.0474 16.0394 16.3835Z" fill="#266582"/>
<path d="M44.69 12.0679C36.9127 12.0679 32.0331 17.8794 32.0331 26.1829C32.0331 34.9269 36.7678 40.7384 45.407 40.7384C48.9827 40.7384 53.0896 39.5765 55.6511 36.6952L51.7374 31.7136C50.0452 33.3734 47.4373 33.8714 45.5519 33.8714C41.64 33.8714 39.4222 31.7136 39.0785 29.0557H56.6244C58.1216 17.8773 52.8073 12.0679 44.69 12.0679ZM39.086 23.2484C39.7621 20.5373 41.8889 18.8753 44.69 18.8753C47.5896 18.8753 50.2458 20.2607 50.3907 23.2484H39.086Z" fill="#266582"/>
<path d="M79.4767 15.9409C78.2192 13.5044 75.4181 12.1765 72.4182 12.1765C65.3597 12.0658 59.9043 17.3795 59.9043 26.4575C59.9043 35.4781 65.0756 40.7917 72.225 40.7364C74.545 40.6811 77.974 39.5745 79.5696 36.6932L79.9559 40.1235H86.2324V12.7851H79.7182L79.4767 15.9409ZM73.1464 33.6523C69.6691 33.6523 66.8662 30.9965 66.8662 26.4575C66.8662 21.9185 69.6691 19.2053 73.1464 19.2053C77.3016 19.2053 79.4767 22.8037 79.4767 26.7341C79.4767 30.156 77.0601 33.6523 73.1464 33.6523Z" fill="#266582"/>
<path d="M108.464 20.9779L111.361 14.6684C109.671 12.9511 107.786 12.1765 105.516 12.1765C102.858 12.1765 100.733 13.2831 99.1392 15.8303L98.6079 12.8404H92.1327V40.1278H99.0909V25.9C99.0909 21.8036 101.65 19.5905 104.647 19.5905C106.017 19.5663 107.356 20.0533 108.464 20.9779Z" fill="#266582"/>
<path d="M133.908 33.4522C133.536 33.8033 133.252 34.2843 132.851 34.6056C132.731 34.7004 132.601 34.7783 132.465 34.8375H132.437C131.967 35.7185 131.239 36.1718 130.393 36.4165L130.405 36.3995C129.86 37.0081 129.179 37.206 128.449 37.2401L128.363 37.3422L128.248 37.289C126.093 38.0295 123.976 38.0913 121.933 36.8634C121.487 36.8634 121.086 36.7634 120.818 36.3165C120.489 36.2547 120.174 36.1142 119.895 35.9042C119.616 35.6941 119.379 35.4191 119.198 35.0972C119.133 35.0984 119.07 35.076 119.017 35.0331C118.964 34.9903 118.924 34.9293 118.903 34.8588C118.694 34.7872 118.505 34.6576 118.35 34.4817C118.196 34.3057 118.082 34.0887 118.019 33.8501C117.235 33.3416 116.795 32.5351 116.518 31.5838C116.394 31.4851 116.294 31.3509 116.229 31.1945C116.164 31.0381 116.135 30.865 116.146 30.6922C116.017 30.6038 115.914 30.4717 115.853 30.314C115.791 30.1563 115.774 29.9807 115.803 29.8112C113.548 23.9166 116.247 16.707 121.561 14.447L121.916 14.2108C122.181 14.1449 122.445 14.0789 122.713 14.0087C124.109 13.4121 125.61 13.2092 127.089 13.4171C128.42 13.6161 129.704 14.1154 130.866 14.8861C132.027 15.6568 133.044 16.6836 133.858 17.9072C135.384 18.0753 136.289 17.0921 137.142 16.0175C135.211 12.8219 132.401 10.4597 129.161 9.30788C125.921 8.1561 122.438 8.28124 119.267 9.6633C118.981 9.7846 118.71 9.92079 118.422 10.0612L118.084 10.2421C116.227 11.2687 114.572 12.7178 113.22 14.501C111.868 16.2842 110.847 18.3641 110.219 20.614C109.592 22.8639 109.371 25.2367 109.57 27.5876C109.769 29.9386 110.383 32.2186 111.376 34.2885L102.373 45.618C102.373 45.618 102.29 51.5955 107.364 49.0228L115.424 39.6766C117.222 41.2621 119.308 42.3652 121.528 42.9047C123.747 43.4441 126.044 43.4061 128.25 42.7935C130.455 42.1809 132.512 41.0093 134.27 39.365C136.027 37.7207 137.44 35.6456 138.405 33.2926C137.517 32.6202 136.583 31.9796 135.591 31.6562C134.599 31.3327 134.526 32.8862 133.908 33.4522Z" fill="#266582"/>
</svg>
