<svg width="39" height="35" viewBox="0 0 39 35" fill="none" xmlns="http://www.w3.org/2000/svg">
<path d="M37.75 2.83331V13.8333H27.75" stroke="black" stroke-width="2" stroke-linecap="round" stroke-linejoin="round"/>
<path d="M1.08325 32.1666V21.1666H11.0833" stroke="black" stroke-width="2" stroke-linecap="round" stroke-linejoin="round"/>
<path d="M5.26659 12C6.11186 9.37244 7.54847 7.02323 9.44236 5.1716C11.3363 3.31996 13.6257 2.02623 16.0971 1.41114C18.5684 0.79604 21.1412 0.879622 23.5752 1.65408C26.0093 2.42854 28.2253 3.86864 30.0166 5.84L37.7499 13.8333M1.08325 21.1667L8.81659 29.16C10.6078 31.1314 12.8239 32.5715 15.2579 33.3459C17.692 34.1204 20.2647 34.204 22.7361 33.5889C25.2075 32.9738 27.4969 31.68 29.3908 29.8284C31.2847 27.9768 32.7213 25.6276 33.5666 23" stroke="black" stroke-width="2" stroke-linecap="round" stroke-linejoin="round"/>
</svg>
