<svg width="41" height="35" viewBox="0 0 41 35" fill="none" xmlns="http://www.w3.org/2000/svg">
<path d="M6.68054 26.25V17.5C6.68054 14.019 8.26419 10.6806 11.0831 8.21922C13.902 5.75781 17.7253 4.375 21.7118 4.375C25.6983 4.375 29.5216 5.75781 32.3405 8.21922C35.1594 10.6806 36.743 14.019 36.743 17.5V26.25" stroke="black" stroke-width="2" stroke-linecap="round" stroke-linejoin="round"/>
<path d="M36.743 30.625C36.743 31.3985 36.3911 32.1404 35.7647 32.6874C35.1383 33.2344 34.2886 33.5416 33.4028 33.5416H31.7326C30.8467 33.5416 29.9971 33.2344 29.3707 32.6874C28.7443 32.1404 28.3923 31.3985 28.3923 30.625V26.25C28.3923 25.4764 28.7443 24.7346 29.3707 24.1876C29.9971 23.6406 30.8467 23.3333 31.7326 23.3333H36.743V30.625ZM6.68054 30.625C6.68054 31.3985 7.03246 32.1404 7.65889 32.6874C8.28531 33.2344 9.13492 33.5416 10.0208 33.5416H11.691C12.5769 33.5416 13.4265 33.2344 14.0529 32.6874C14.6793 32.1404 15.0312 31.3985 15.0312 30.625V26.25C15.0312 25.4764 14.6793 24.7346 14.0529 24.1876C13.4265 23.6406 12.5769 23.3333 11.691 23.3333H6.68054V30.625Z" stroke="black" stroke-width="2" stroke-linecap="round" stroke-linejoin="round"/>
</svg>
